<svg width="1200" height="900" viewBox="0 0 1200 900" fill="none" xmlns="http://www.w3.org/2000/svg">
  <rect width="1200" height="900" rx="48" fill="#F8EFE0"/>
  <rect x="90" y="110" width="1020" height="680" rx="36" fill="#FFFDF7" stroke="#D7B866" stroke-width="8"/>
  <ellipse cx="600" cy="360" rx="260" ry="200" fill="#E0C06C"/>
  <ellipse cx="600" cy="360" rx="200" ry="140" fill="#F2DCA5"/>
  <path d="M430 560C472 492 522 452 600 452C678 452 728 492 770 560" stroke="#8B4513" stroke-width="24" stroke-linecap="round"/>
  <circle cx="412" cy="332" r="36" fill="#8B4513"/>
  <circle cx="510" cy="304" r="24" fill="#A45A21"/>
  <circle cx="618" cy="292" r="28" fill="#8B4513"/>
  <circle cx="720" cy="316" r="26" fill="#A45A21"/>
  <path d="M380 250C412 200 450 178 484 180C528 182 552 228 520 276" stroke="#6F3410" stroke-width="16" stroke-linecap="round"/>
  <path d="M760 242C788 198 828 182 860 196C900 212 906 266 874 300" stroke="#6F3410" stroke-width="16" stroke-linecap="round"/>
  <text x="600" y="790" text-anchor="middle" font-family="Segoe UI, Arial, sans-serif" font-size="66" font-weight="700" fill="#8B4513">Dry Fruit Sweets</text>
</svg>
