<svg width="1200" height="900" viewBox="0 0 1200 900" fill="none" xmlns="http://www.w3.org/2000/svg">
  <rect width="1200" height="900" rx="48" fill="#FFF7E8"/>
  <rect x="90" y="110" width="1020" height="680" rx="36" fill="#FFFDF8" stroke="#E1C47A" stroke-width="8"/>
  <ellipse cx="600" cy="360" rx="260" ry="190" fill="#F7E5B8"/>
  <ellipse cx="600" cy="360" rx="180" ry="120" fill="#F9D28C"/>
  <path d="M420 500C460 420 530 370 600 370C670 370 740 420 780 500" stroke="#8B4513" stroke-width="24" stroke-linecap="round"/>
  <path d="M366 606C431 550 514 520 600 520C686 520 770 551 834 606" stroke="#A45A21" stroke-width="18" stroke-linecap="round"/>
  <circle cx="430" cy="330" r="28" fill="#8B4513"/>
  <circle cx="500" cy="280" r="20" fill="#D89A4A"/>
  <circle cx="700" cy="320" r="32" fill="#8B4513"/>
  <circle cx="760" cy="270" r="18" fill="#D89A4A"/>
  <text x="600" y="790" text-anchor="middle" font-family="Segoe UI, Arial, sans-serif" font-size="74" font-weight="700" fill="#8B4513">Milk Sweets</text>
</svg>
